<svg width="36" height="37" viewBox="0 0 36 37" fill="none" xmlns="http://www.w3.org/2000/svg">
<path id="Vector" d="M31.1387 24.5367L34.8589 26.5227C33.8046 28.7186 32.3748 30.7073 30.636 32.3967C29.0688 33.87 27.2378 35.0248 25.242 35.7987C23.0752 36.6201 20.7771 37.0269 18.4641 36.9987C12.8769 36.9987 8.50613 35.1407 5.35176 31.4247C2.29443 27.9619 0.60894 23.4735 0.620218 18.8247C0.574433 14.5439 1.98904 10.3786 4.6243 7.03479C8.00735 2.63481 12.5417 0.434814 18.2275 0.434814C24.0631 0.434814 28.7276 2.68281 32.221 7.17879C34.7011 10.3508 35.9609 14.3128 36.0003 19.0647H5.1625C5.2453 23.0927 6.51889 26.4047 8.98323 29.0007C10.149 30.2581 11.5622 31.2529 13.1313 31.9207C14.7004 32.5884 16.3903 32.9141 18.0915 32.8767C19.8294 32.8685 21.5519 32.5455 23.1779 31.9227C24.7163 31.3725 26.1432 30.543 27.3889 29.4747C28.8756 28.0285 30.1396 26.3639 31.1387 24.5367ZM31.1387 15.1768C30.6954 13.1067 29.8201 11.1569 28.5718 9.45878C27.3686 7.97157 25.8395 6.79017 24.1064 6.00879C22.2812 5.14258 20.2899 4.69595 18.2748 4.7008C15.0762 4.64294 11.976 5.82289 9.60424 8.00078C7.83385 9.60078 6.49919 12.0008 5.60019 15.2008L31.1387 15.1768Z" fill="#1D71B8"/>
</svg>
