<svg width="8" height="50" viewBox="0 0 8 50" fill="none" xmlns="http://www.w3.org/2000/svg">
<path id="Vector" d="M4.16166 0.000424605C4.6401 -0.00709951 5.11494 0.0854457 5.55657 0.27229C5.9982 0.459134 6.39715 0.736271 6.72854 1.08642C7.0728 1.42707 7.34522 1.83515 7.52924 2.28588C7.71327 2.73661 7.80507 3.22059 7.79907 3.70841C7.80335 4.19065 7.71062 4.6687 7.52655 5.11334C7.34249 5.55798 7.07095 5.95986 6.72854 6.2944C6.395 6.63835 5.99731 6.91153 5.55864 7.09799C5.11998 7.28446 4.6491 7.38049 4.17348 7.38049C3.69786 7.38049 3.22701 7.28446 2.78834 7.09799C2.34967 6.91153 1.95199 6.63835 1.61844 6.2944C1.27683 5.95956 1.0062 5.55749 0.823137 5.11283C0.640076 4.66816 0.548426 4.19026 0.553819 3.70841C0.547048 3.22102 0.637917 2.7373 0.820917 2.2866C1.00392 1.83589 1.27525 1.42758 1.61844 1.08642C1.9458 0.737521 2.34066 0.46097 2.77829 0.274096C3.21592 0.0872214 3.68688 -0.00594826 4.16166 0.000424605ZM1.97329 14.3104H6.37959V49.0742H1.97329V14.3104Z" fill="#1D71B8"/>
</svg>
