<svg width="52" height="37" viewBox="0 0 52 37" fill="none" xmlns="http://www.w3.org/2000/svg">
<path id="Vector" d="M0.0241699 1.31056H4.43042V7.31054C5.67448 5.39007 7.28292 3.74002 9.16198 2.45656C11.2721 1.12753 13.7046 0.419204 16.1883 0.410569C17.8162 0.403183 19.4277 0.740362 20.9199 1.40056C22.3156 1.99573 23.5639 2.89735 24.575 4.04055C25.6833 5.43732 26.5184 7.03595 27.0354 8.75053C28.3159 6.23623 30.2095 4.09631 32.5359 2.53456C34.6492 1.14467 37.1147 0.406834 39.6332 0.410569C41.8536 0.359821 44.0377 0.986921 45.9025 2.21056C47.7298 3.44288 49.1399 5.21475 49.9421 7.28654C50.8174 9.46653 51.2571 12.7265 51.261 17.0665V36.0744H46.7542V17.0965C46.7542 13.3725 46.494 10.8105 45.9735 9.41053C45.4533 8.02628 44.513 6.84548 43.2884 6.03854C41.9346 5.16622 40.3551 4.72335 38.752 4.76655C36.649 4.75512 34.5974 5.42573 32.8967 6.68054C31.1319 7.95469 29.7828 9.73487 29.0227 11.7925C28.2065 13.9205 27.7984 17.4765 27.7984 22.4605V36.0744H23.3862V18.2785C23.3862 14.0825 23.1299 11.2325 22.6173 9.72853C22.1243 8.26671 21.1808 7.00455 19.9263 6.12854C18.5811 5.20418 16.9845 4.73002 15.3603 4.77255C13.3114 4.77372 11.314 5.42398 9.64697 6.63254C7.87258 7.87744 6.50346 9.62978 5.71387 11.6665C4.86219 13.7745 4.43634 17.0005 4.43634 21.3445V36.0744H0.0300721L0.0241699 1.31056Z" fill="#1D71B8"/>
</svg>
