<svg width="36" height="38" viewBox="0 0 36 38" fill="none" xmlns="http://www.w3.org/2000/svg">
<path id="Subtract" fill-rule="evenodd" clip-rule="evenodd" d="M35.6197 18.7383C35.6197 28.8649 27.6704 37.0742 17.8645 37.0742C8.05862 37.0742 0.109375 28.8649 0.109375 18.7383C0.109375 8.61162 8.05862 0.402344 17.8645 0.402344C27.6704 0.402344 35.6197 8.61162 35.6197 18.7383ZM18.9777 5.63304L10.0859 18.4809C9.62692 19.1442 10.1016 20.05 10.9082 20.05H14.2C14.7523 20.05 15.2 20.4977 15.2 21.05V30.7979C15.2 31.7783 16.4643 32.1732 17.0223 31.367L25.9141 18.5191C26.3731 17.8558 25.8984 16.95 25.0918 16.95H21.8C21.2477 16.95 20.8 16.5023 20.8 15.95V6.20212C20.8 5.22167 19.5357 4.82684 18.9777 5.63304Z" fill="#1D71B8"/>
</svg>
