<svg width="20" height="20" viewBox="0 0 20 20" fill="none" xmlns="http://www.w3.org/2000/svg">
<path id="Star 14" d="M9.12152 1.68522C9.42448 0.752807 10.7436 0.752806 11.0465 1.68522L12.5834 6.41529C12.7189 6.83228 13.1075 7.1146 13.546 7.1146L18.5194 7.1146C19.4998 7.1146 19.9075 8.36915 19.1143 8.94541L15.0907 11.8688C14.736 12.1265 14.5875 12.5833 14.723 13.0003L16.2599 17.7303C16.5629 18.6627 15.4957 19.4381 14.7025 18.8618L10.6789 15.9385C10.3242 15.6808 9.84388 15.6808 9.48917 15.9385L5.46553 18.8618C4.67237 19.4381 3.60518 18.6627 3.90814 17.7303L5.44504 13.0003C5.58052 12.5833 5.4321 12.1265 5.07739 11.8688L1.05375 8.94541C0.260593 8.36915 0.668219 7.1146 1.64861 7.1146L6.62211 7.1146C7.06055 7.1146 7.44914 6.83228 7.58462 6.41529L9.12152 1.68522Z" fill="#1D71B8"/>
</svg>
