<svg width="31" height="36" viewBox="0 0 31 36" fill="none" xmlns="http://www.w3.org/2000/svg">
<path id="Vector" d="M0.190918 0.310547H4.59718V16.5405C4.59718 20.5045 4.80812 23.2325 5.23002 24.7244C5.80729 26.7956 7.08715 28.5933 8.84374 29.8004C10.7284 31.0486 12.9464 31.6771 15.1958 31.6004C17.4167 31.6706 19.6046 31.0418 21.4592 29.8004C23.1252 28.6582 24.3727 26.9898 25.0079 25.0544C25.4456 23.7104 25.6664 20.8665 25.6703 16.5225V0.322547H30.1712V17.3745C30.1712 22.1745 29.6212 25.7844 28.5211 28.2044C27.4692 30.5727 25.7324 32.5606 23.5411 33.9044C21.3291 35.2764 18.5533 35.9644 15.2136 35.9684C11.8739 35.9724 9.08623 35.2844 6.85057 33.9044C4.64465 32.5552 2.90333 30.5477 1.8647 28.1564C0.756733 25.6964 0.204718 21.9965 0.208661 17.0565L0.190918 0.310547Z" fill="#1D71B8"/>
</svg>
